<?xml version="1.0" standalone="no"?>
<!DOCTYPE svg PUBLIC "-//W3C//DTD SVG 20010904//EN"
 "http://www.w3.org/TR/2001/REC-SVG-20010904/DTD/svg10.dtd">
<svg version="1.0" xmlns="http://www.w3.org/2000/svg"
 width="512.000000pt" height="512.000000pt" viewBox="0 0 512.000000 512.000000"
 preserveAspectRatio="xMidYMid meet">
<g transform="translate(0.000000,512.000000) scale(0.100000,-0.100000)"
fill="#337ab7" stroke="none">
<path d="M785 5095 c-74 -14 -222 -61 -241 -76 -6 -5 -33 -21 -60 -35 -105
-56 -244 -186 -323 -302 -49 -73 -75 -125 -106 -210 -55 -153 -53 -86 -51
-1942 1 -943 4 -1725 8 -1738 4 -12 14 -50 23 -83 40 -158 119 -293 245 -418
105 -104 103 -103 203 -163 91 -55 231 -103 339 -117 44 -6 738 -9 1778 -8
l1705 2 85 23 c47 13 130 46 185 73 137 68 218 134 353 293 64 76 151 279 171
401 6 38 10 688 10 1760 0 1477 -2 1710 -15 1778 -70 361 -333 643 -699 749
l-80 23 -1730 1 c-1385 2 -1744 -1 -1800 -11z m2695 -869 c27 -4 98 -35 117
-51 59 -51 571 -568 588 -595 47 -75 62 -166 39 -247 -6 -23 -9 -44 -6 -47 3
-4 -1 -6 -8 -6 -7 0 -10 -3 -7 -7 12 -11 -42 -73 -205 -236 -103 -104 -162
-156 -170 -151 -20 12 -948 938 -948 946 0 8 331 343 340 344 3 0 16 8 30 17
53 34 143 47 230 33z m-340 -1081 c261 -262 477 -478 479 -480 2 -2 -404 -412
-902 -910 l-906 -905 -480 0 -481 0 0 480 0 480 903 904 c496 497 904 905 907
905 3 1 219 -213 480 -474z"/>
<path d="M2644 3148 c-47 -37 -1000 -992 -1011 -1013 -22 -41 24 -93 70 -81
12 3 250 234 530 514 546 547 537 537 481 581 -33 26 -35 26 -70 -1z"/>
<path d="M1258 1761 l-88 -88 0 -86 c0 -62 4 -87 13 -88 6 -1 71 -3 142 -4 72
-2 139 -3 150 -4 20 -1 21 -7 20 -158 l0 -158 91 -2 91 -1 86 87 86 87 -252
251 -252 252 -87 -88z"/>
</g>
</svg>
